custom-analysis
version=1
nRows=4
nColumns=98
inDegrees=no

This file contains tibia displacement and acting force.

Units are S.I. units (seconds, meters, Newtons, ...)
Angles are in degrees.

endheader
time	APT	SIT	knee_angle	aACL_R_force	pACL_R_force	aPCL_R_force	pPCL_R_force	aMCL_R_force	mMCL_R_force	pMCL_R_force	aLCL_R_force	mLCL_R_force	pLCL_R_force	aPCL_L_force	pPCL_L_force	aMCL_L_force	aLCL_L_force	aACL_R_length	pACL_R_length	aPCL_R_length	pPCL_R_length	aMCL_R_length	mMCL_R_length	pMCL_R_length	aLCL_R_length	mLCL_R_length	pLCL_R_length	aPCL_L_length	pPCL_L_length	aMCL_L_length	aLCL_L_length	aACL_R_strain	pACL_R_strain	aPCL_R_strain	pPCL_R_strain	aMCL_R_strain	mMCL_R_strain	pMCL_R_strain	aLCL_R_strain	mLCL_R_strain	pLCL_R_strain	aPCL_L_strain	pPCL_L_strain	aMCL_L_strain	aLCL_L_strain	femur_lat_meniscii_r.femur_lat_r.force.X	femur_lat_meniscii_r.femur_lat_r.force.Y	femur_lat_meniscii_r.femur_lat_r.force.Z	femur_lat_meniscii_r.femur_lat_r.torque.X	femur_lat_meniscii_r.femur_lat_r.torque.Y	femur_lat_meniscii_r.femur_lat_r.torque.Z	femur_lat_meniscii_r.meniscus_lat_r.force.X	femur_lat_meniscii_r.meniscus_lat_r.force.Y	femur_lat_meniscii_r.meniscus_lat_r.force.Z	femur_lat_meniscii_r.meniscus_lat_r.torque.X	femur_lat_meniscii_r.meniscus_lat_r.torque.Y	femur_lat_meniscii_r.meniscus_lat_r.torque.Z	femur_med_meniscii_r.femur_med_r.force.X	femur_med_meniscii_r.femur_med_r.force.Y	femur_med_meniscii_r.femur_med_r.force.Z	femur_med_meniscii_r.femur_med_r.torque.X	femur_med_meniscii_r.femur_med_r.torque.Y	femur_med_meniscii_r.femur_med_r.torque.Z	femur_med_meniscii_r.meniscus_med_r.force.X	femur_med_meniscii_r.meniscus_med_r.force.Y	femur_med_meniscii_r.meniscus_med_r.force.Z	femur_med_meniscii_r.meniscus_med_r.torque.X	femur_med_meniscii_r.meniscus_med_r.torque.Y	femur_med_meniscii_r.meniscus_med_r.torque.Z	femur_med_tibia_r.tibia_upper_r.force.X	femur_med_tibia_r.tibia_upper_r.force.Y	femur_med_tibia_r.tibia_upper_r.force.Z	femur_med_tibia_r.tibia_upper_r.torque.X	femur_med_tibia_r.tibia_upper_r.torque.Y	femur_med_tibia_r.tibia_upper_r.torque.Z	femur_med_tibia_r.femur_med_r.force.X	femur_med_tibia_r.femur_med_r.force.Y	femur_med_tibia_r.femur_med_r.force.Z	femur_med_tibia_r.femur_med_r.torque.X	femur_med_tibia_r.femur_med_r.torque.Y	femur_med_tibia_r.femur_med_r.torque.Z	femur_lat_tibia_r.tibia_upper_r.force.X	femur_lat_tibia_r.tibia_upper_r.force.Y	femur_lat_tibia_r.tibia_upper_r.force.Z	femur_lat_tibia_r.tibia_upper_r.torque.X	femur_lat_tibia_r.tibia_upper_r.torque.Y	femur_lat_tibia_r.tibia_upper_r.torque.Z	femur_lat_tibia_r.femur_lat_r.force.X	femur_lat_tibia_r.femur_lat_r.force.Y	femur_lat_tibia_r.femur_lat_r.force.Z	femur_lat_tibia_r.femur_lat_r.torque.X	femur_lat_tibia_r.femur_lat_r.torque.Y	femur_lat_tibia_r.femur_lat_r.torque.Z	femur_lat_meniscii_force_r	femur_med_meniscii_force_r	femur_lat_tibia_force_r	femur_med_tibia_force_r
      0.16496539	      0.01289206	      0.01733392	     57.08823683	     -2.24924958	      0.00000000	    581.77891856	    376.40312043	      0.00000000	      0.00000000	      0.00000000	      0.00000000	      0.00000000	      0.00000000	      0.00000000	      0.00000000	      0.00000001	      0.00000000	      0.03125302	      0.02397308	      0.03497159	      0.03244245	      0.05954786	      0.05920395	      0.05628878	      0.05256696	      0.04783009	      0.04294228	      0.01525851	      0.01651186	      0.06550154	      0.04489616	      0.00798300	     -0.04332289	      0.12465848	      0.08547461	     -0.00798208	     -0.00985974	     -0.04153418	     -0.06092200	     -0.15072298	     -0.17959368	      0.00000079	     -0.32847694	      0.00000060	     -0.00000086	    109.31623259	    193.74527785	     23.93111070	    -14.33701816	      2.66214215	     42.75134075	   -109.31623259	   -193.74527785	    -23.93111070	      5.38657579	     -3.32242256	      3.47947849	     25.77513986	     22.65988416	     11.93398241	     -4.29492309	     -0.58213460	     10.33687933	    -25.77513986	    -22.65988416	    -11.93398241	     -0.28105202	      0.29660579	      0.08851299	   -754.46181960	   -686.00218850	    222.46192343	    -15.84676481	     17.04788915	     -1.14656562	    754.46181960	    686.00218850	   -222.46192343	    102.83472059	    -13.60490321	    306.77633920	      0.00000000	      0.00000000	      0.00000000	      0.00000000	      0.00000000	      0.00000000	      0.00000000	      0.00000000	      0.00000000	      0.00000000	      0.00000000	      0.00000000	    223.74085334	     36.33521875	      0.00000000	   1043.69581165
      0.16522518	      0.01290895	      0.01738372	     57.22806940	     -2.19808632	      0.00000000	    584.35746146	    377.60848458	      0.00000000	      0.00000000	      0.00000000	      0.00000000	      0.00000000	      0.00000000	      0.00000000	      0.00000000	      0.00000001	      0.00000000	      0.03125123	      0.02397254	      0.03498672	      0.03245117	      0.05956080	      0.05920644	      0.05628441	      0.05255814	      0.04781519	      0.04292394	      0.01525851	      0.01651186	      0.06550154	      0.04489616	      0.00792541	     -0.04334471	      0.12514486	      0.08576650	     -0.00776648	     -0.00981811	     -0.04160858	     -0.06107949	     -0.15098751	     -0.17994418	      0.00000079	     -0.32847694	      0.00000060	     -0.00000086	    109.59647263	    194.19783269	     23.93162934	    -14.34843649	      2.66837518	     42.85163269	   -109.59647263	   -194.19783269	    -23.93162934	      5.39819406	     -3.33060672	      3.51039781	     25.80658400	     22.41491256	     11.80189362	     -4.24679178	     -0.58205048	     10.34927879	    -25.80658400	    -22.41491256	    -11.80189362	     -0.27891283	      0.29854741	      0.08529015	   -756.81360150	   -685.68411126	    223.33636789	    -15.84021437	     17.11145533	     -1.11127282	    756.81360150	    685.68411126	   -223.33636789	    103.17652340	    -13.64580115	    307.70554242	      0.00000000	      0.00000000	      0.00000000	      0.00000000	      0.00000000	      0.00000000	      0.00000000	      0.00000000	      0.00000000	      0.00000000	      0.00000000	      0.00000000	    224.26972135	     36.16203500	      0.00000000	   1045.37489021
      0.16541657	      0.01292132	      0.01742045	     57.33109451	     -2.20470855	      0.00000000	    586.27170885	    378.55392754	      0.00000000	      0.00000000	      0.00000000	      0.00000000	      0.00000000	      0.00000000	      0.00000000	      0.00000000	      0.00000001	      0.00000000	      0.03124993	      0.02397216	      0.03499782	      0.03245758	      0.05957032	      0.05920829	      0.05628123	      0.05255158	      0.04780417	      0.04291039	      0.01525851	      0.01651186	      0.06550154	      0.04489616	      0.00788333	     -0.04335980	      0.12550192	      0.08598090	     -0.00760783	     -0.00978726	     -0.04166272	     -0.06119669	     -0.15118330	     -0.18020302	      0.00000079	     -0.32847694	      0.00000060	     -0.00000086	    111.20624587	    192.43052810	     22.96665136	    -13.89721469	      2.70566317	     43.52908729	   -111.20624587	   -192.43052810	    -22.96665136	      5.31693009	     -3.35147587	      3.42835986	     25.82844676	     22.30129766	     11.73377515	     -4.22221051	     -0.58189672	     10.35728474	    -25.82844676	    -22.30129766	    -11.73377515	     -0.27763190	      0.29929077	      0.08491463	   -758.84289198	   -684.98833086	    223.62825634	    -15.81907154	     17.15311363	     -1.10701932	    758.84289198	    684.98833086	   -223.62825634	    103.27525788	    -13.67850512	    308.51706123	      0.00000000	      0.00000000	      0.00000000	      0.00000000	      0.00000000	      0.00000000	      0.00000000	      0.00000000	      0.00000000	      0.00000000	      0.00000000	      0.00000000	    223.43635411	     36.08514955	      0.00000000	   1046.45169270
      0.16567758	      0.01293808	      0.01747057	     57.47160186	     -2.23053769	      0.00000000	    588.88103273	    379.85802789	      0.00000000	      0.00000000	      0.00000000	      0.00000000	      0.00000000	      0.00000000	      0.00000000	      0.00000000	      0.00000001	      0.00000000	      0.03124814	      0.02397165	      0.03501292	      0.03246631	      0.05958330	      0.05921082	      0.05627696	      0.05254256	      0.04778907	      0.04289188	      0.01525851	      0.01651186	      0.06550154	      0.04489616	      0.00782556	     -0.04338020	      0.12598765	      0.08627300	     -0.00739171	     -0.00974489	     -0.04173553	     -0.06135791	     -0.15145131	     -0.18055655	      0.00000079	     -0.32847694	      0.00000060	     -0.00000086	    111.81453805	    192.41192298	     22.69724033	    -13.78499707	      2.71477708	     43.77128801	   -111.81453805	   -192.41192298	    -22.69724033	      5.30853650	     -3.35740496	      3.43448562	     25.99442458	     22.23834619	     11.60493443	     -4.17155082	     -0.58478919	     10.42224660	    -25.99442458	    -22.23834619	    -11.60493443	     -0.27898715	      0.30395372	      0.08487783	   -761.46267049	   -684.63085076	    223.35028443	    -15.77842008	     17.18749943	     -1.07870342	    761.46267049	    684.63085076	   -223.35028443	    103.13777965	    -13.71447907	    309.55660974	      0.00000000	      0.00000000	      0.00000000	      0.00000000	      0.00000000	      0.00000000	      0.00000000	      0.00000000	      0.00000000	      0.00000000	      0.00000000	      0.00000000	    223.69623096	     36.12379622	      0.00000000	   1048.06018430
